<svg width="161" height="24" viewBox="0 0 161 24" fill="none" xmlns="http://www.w3.org/2000/svg">
<g clip-path="url(#clip0_87_67)">
<path d="M10.4492 3.92781H13.7064V19.1207H10.4492V12.8249H4.65624V19.1207H1.39906V3.92781H4.65624V9.91753H10.4492V3.92781ZM17.9124 5.9171C16.732 5.9171 15.792 5.06455 15.792 3.86223C15.792 2.68178 16.732 1.80737 17.9124 1.80737C19.0929 1.80737 20.011 2.68178 20.011 3.86223C20.011 5.06455 19.0929 5.9171 17.9124 5.9171ZM16.2729 19.1207V7.60034H19.5082V19.1207H16.2729ZM24.8838 8.71521C25.6708 7.88452 26.8294 7.31615 28.1847 7.31615V10.3547C26.2173 10.3547 25.0587 11.251 25.0587 12.7812V19.1207H21.8234V7.60034H24.8838V8.71521ZM31.896 14.3552C32.2676 15.8635 33.4481 16.7161 34.9783 16.7161C36.3992 16.7161 37.1206 16.2133 37.6234 15.2952L40.0936 16.9347C39.1973 18.2463 37.7108 19.4049 34.8909 19.4049C31.1528 19.4049 28.7263 16.8035 28.7263 13.3714C28.7263 10.0268 31.3714 7.33801 34.6723 7.33801C38.3885 7.33801 40.5964 10.2454 40.5964 13.131C40.5964 13.6338 40.5745 14.071 40.5308 14.3552H31.896ZM31.8523 12.2347H37.5578C37.2518 10.7264 36.2462 9.78636 34.7597 9.78636C33.2732 9.78636 32.1802 10.6608 31.8523 12.2347ZM45.6656 16.3007H52.7264V19.1207H42.4084V3.92781H52.5953V6.74779H45.6656V9.98311H51.7865V12.8031H45.6656V16.3007ZM65.8484 19.1207H62.2852L59.5308 15.47L56.7327 19.1207H53.3006L57.8038 13.1747L53.6067 7.60034H57.1917L59.7713 11.0324L62.3289 7.60034H65.761L61.4982 13.3277L65.8484 19.1207ZM73.4911 7.33801C76.8139 7.33801 79.1311 9.91753 79.1311 13.3714C79.1311 16.8035 76.7265 19.4049 73.4037 19.4049C72.0484 19.4049 70.9335 18.9677 70.1028 18.1588V23.0337H66.8675V7.60034H69.8623V8.86823C70.7367 7.88452 71.9828 7.33801 73.4911 7.33801ZM72.9665 16.5412C74.6716 16.5412 75.9176 15.2077 75.9176 13.3714C75.9176 11.5352 74.6716 10.1798 72.9665 10.1798C71.1739 10.1798 69.9716 11.4915 69.9716 13.3714C69.9716 15.2514 71.1739 16.5412 72.9665 16.5412ZM83.4939 14.3552C83.8655 15.8635 85.046 16.7161 86.5762 16.7161C87.9971 16.7161 88.7185 16.2133 89.2213 15.2952L91.6915 16.9347C90.7952 18.2463 89.3087 19.4049 86.4888 19.4049C82.7507 19.4049 80.3242 16.8035 80.3242 13.3714C80.3242 10.0268 82.9693 7.33801 86.2702 7.33801C89.9864 7.33801 92.1943 10.2454 92.1943 13.131C92.1943 13.6338 92.1724 14.071 92.1287 14.3552H83.4939ZM83.4502 12.2347H89.1557C88.8497 10.7264 87.8441 9.78636 86.3576 9.78636C84.8711 9.78636 83.7781 10.6608 83.4502 12.2347ZM96.9544 8.71521C97.7413 7.88452 98.8999 7.31615 100.255 7.31615V10.3547C98.2878 10.3547 97.1292 11.251 97.1292 12.7812V19.1207H93.8939V7.60034H96.9544V8.71521ZM107.128 19.1207C104.264 19.1207 102.799 17.4156 102.799 14.8142V10.3547H100.832V7.60034H101.816C102.603 7.60034 102.996 7.18499 102.996 6.3543V4.56176H106.144V7.60034H108.942V10.3547H106.035V14.4207C106.035 15.6449 106.669 16.3007 107.805 16.3007H109.029V19.1207H107.128ZM114.765 19.4049C112.208 19.4049 110.371 18.3556 109.716 16.3663L112.448 15.317C112.754 16.3226 113.585 16.9128 114.875 16.9128C115.837 16.9128 116.405 16.5193 116.405 15.8635C116.405 13.8524 110.262 14.8142 110.262 10.8575C110.262 8.67149 112.055 7.33801 114.853 7.33801C117.148 7.33801 118.81 8.27801 119.29 9.87381L116.558 10.9231C116.274 10.1361 115.662 9.74264 114.809 9.74264C113.935 9.74264 113.454 10.0924 113.454 10.6826C113.454 12.5408 119.618 11.4259 119.618 15.6668C119.618 17.984 117.716 19.4049 114.765 19.4049Z" fill="#2D81F7"/>
<path d="M135.081 17.7224C135.081 17.941 134.994 18.0503 134.819 18.0503L134.644 18.0065L126.009 14.2029C125.819 14.1008 125.725 13.9551 125.725 13.7657V11.7108C125.725 11.5068 125.819 11.361 126.009 11.2736L134.644 7.4699L134.819 7.42618C134.994 7.42618 135.081 7.53548 135.081 7.75408V9.89639C135.081 10.0858 134.986 10.2243 134.797 10.3117L129.091 12.6508C129.033 12.6654 129.004 12.6945 129.004 12.7382C129.004 12.7674 129.033 12.7965 129.091 12.8257L134.797 15.1429C134.986 15.2303 135.081 15.3687 135.081 15.5582V17.7224ZM140.973 18.7279C140.842 18.7279 140.747 18.6842 140.689 18.5968C140.63 18.5093 140.623 18.4073 140.667 18.2907L146.219 3.70993C146.278 3.52048 146.416 3.42575 146.635 3.42575H148.952C149.083 3.42575 149.178 3.46947 149.236 3.55691C149.294 3.64435 149.302 3.74637 149.258 3.86296L143.705 18.4438C143.647 18.6332 143.509 18.7279 143.29 18.7279H140.973ZM150.708 18.0503C150.533 18.0503 150.446 17.941 150.446 17.7224V15.5582C150.446 15.3687 150.54 15.2303 150.73 15.1429L156.435 12.8257C156.494 12.7965 156.523 12.7674 156.523 12.7382C156.523 12.6945 156.494 12.6654 156.435 12.6508L150.73 10.3117C150.54 10.2243 150.446 10.0858 150.446 9.89639V7.75408C150.446 7.53548 150.533 7.42618 150.708 7.42618L150.883 7.4699L159.518 11.2736C159.707 11.361 159.802 11.5068 159.802 11.7108V13.7657C159.802 13.9551 159.707 14.1008 159.518 14.2029L150.883 18.0065L150.708 18.0503Z" fill="#08BD80"/>
</g>
<defs> 
<clipPath id="clip0_87_67">
<rect width="161" height="24" fill="white"/>
</clipPath>
</defs>
</svg>
