<svg width="162" height="38" viewBox="0 0 162 38" fill="none" xmlns="http://www.w3.org/2000/svg">
<path d="M13.5126 10.0817H17.4872V28.6205H13.5126V20.9382H6.44389V28.6205H2.46938V10.0817H6.44389V17.3905H13.5126V10.0817ZM22.6195 12.5091C21.1791 12.5091 20.0321 11.4688 20.0321 10.0017C20.0321 8.56125 21.1791 7.49426 22.6195 7.49426C24.0599 7.49426 25.1803 8.56125 25.1803 10.0017C25.1803 11.4688 24.0599 12.5091 22.6195 12.5091ZM20.6189 28.6205V14.563H24.5667V28.6205H20.6189ZM31.1262 15.9234C32.0865 14.9098 33.5002 14.2163 35.154 14.2163V17.924C32.7533 17.924 31.3396 19.0177 31.3396 20.8849V28.6205H27.3918V14.563H31.1262V15.9234ZM39.6827 22.8055C40.1361 24.646 41.5766 25.6863 43.4438 25.6863C45.1776 25.6863 46.0579 25.0728 46.6714 23.9525L49.6856 25.9531C48.592 27.5535 46.7781 28.9673 43.3371 28.9673C38.7757 28.9673 35.8149 25.793 35.8149 21.6051C35.8149 17.5239 39.0425 14.2429 43.0703 14.2429C47.605 14.2429 50.2992 17.7906 50.2992 21.3117C50.2992 21.9252 50.2725 22.4587 50.2191 22.8055H39.6827ZM39.6293 20.218H46.5914C46.2179 18.3775 44.9909 17.2305 43.177 17.2305C41.3632 17.2305 40.0294 18.2975 39.6293 20.218ZM56.4847 25.1795H65.1006V28.6205H52.5102V10.0817H64.9406V13.5227H56.4847V17.4705H63.9536V20.9116H56.4847V25.1795ZM81.1124 28.6205H76.7645L73.4035 24.1659L69.9891 28.6205H65.8012L71.2962 21.365L66.1747 14.563H70.5493L73.6969 18.7509L76.8178 14.563H81.0057L75.8042 21.5518L81.1124 28.6205ZM90.4383 14.2429C94.4928 14.2429 97.3203 17.3905 97.3203 21.6051C97.3203 25.793 94.3861 28.9673 90.3316 28.9673C88.6778 28.9673 87.3174 28.4338 86.3038 27.4468V33.3953H82.3559V14.563H86.0103V16.1101C87.0773 14.9098 88.5978 14.2429 90.4383 14.2429ZM89.7981 25.4729C91.8787 25.4729 93.3992 23.8458 93.3992 21.6051C93.3992 19.3644 91.8787 17.7106 89.7981 17.7106C87.6108 17.7106 86.1437 19.3111 86.1437 21.6051C86.1437 23.8991 87.6108 25.4729 89.7981 25.4729ZM102.644 22.8055C103.097 24.646 104.538 25.6863 106.405 25.6863C108.139 25.6863 109.019 25.0728 109.633 23.9525L112.647 25.9531C111.553 27.5535 109.739 28.9673 106.298 28.9673C101.737 28.9673 98.7762 25.793 98.7762 21.6051C98.7762 17.5239 102.004 14.2429 106.032 14.2429C110.566 14.2429 113.26 17.7906 113.26 21.3117C113.26 21.9252 113.234 22.4587 113.18 22.8055H102.644ZM102.591 20.218H109.553C109.179 18.3775 107.952 17.2305 106.138 17.2305C104.325 17.2305 102.991 18.2975 102.591 20.218ZM119.069 15.9234C120.029 14.9098 121.443 14.2163 123.097 14.2163V17.924C120.696 17.924 119.282 19.0177 119.282 20.8849V28.6205H115.334V14.563H119.069V15.9234ZM131.483 28.6205C127.988 28.6205 126.201 26.5399 126.201 23.3656V17.924H123.8V14.563H125.001C125.961 14.563 126.441 14.0562 126.441 13.0426V10.8553H130.282V14.563H133.697V17.924H130.149V22.8855C130.149 24.3793 130.922 25.1795 132.309 25.1795H133.803V28.6205H131.483ZM140.802 28.9673C137.681 28.9673 135.441 27.6869 134.641 25.2595L137.975 23.9791C138.348 25.2062 139.362 25.9264 140.936 25.9264C142.109 25.9264 142.803 25.4462 142.803 24.646C142.803 22.1919 135.307 23.3656 135.307 18.5375C135.307 15.8701 137.495 14.2429 140.909 14.2429C143.71 14.2429 145.737 15.3899 146.324 17.3372L142.99 18.6176C142.643 17.6573 141.896 17.1771 140.856 17.1771C139.789 17.1771 139.202 17.6039 139.202 18.3241C139.202 20.5915 146.724 19.2311 146.724 24.4059C146.724 27.2334 144.403 28.9673 140.802 28.9673Z" fill="#7054FF"/>
<circle cx="157.475" cy="23.9607" r="4.28698" fill="#08BD80"/>
</svg>
